<mxfile><diagram id="8hWP_aCpr3SiQ-K8AfMc" name="Page-1"><mxGraphModel dx="825" dy="458" grid="1" gridSize="10" guides="1" tooltips="1" connect="1" arrows="1" fold="1" page="1" pageScale="1" pageWidth="827" pageHeight="1169" math="0" shadow="0"><root><mxCell id="0"/><mxCell id="1" parent="0"/><mxCell id="o9OmI6OuXcPGQ3Csgr8X-1" value="" style="endArrow=none;html=1;rounded=0;startArrow=none;" parent="1" source="o9OmI6OuXcPGQ3Csgr8X-3" edge="1"><mxGeometry width="50" height="50" relative="1" as="geometry"><mxPoint x="40" y="40" as="sourcePoint"/><mxPoint x="800" y="520" as="targetPoint"/></mxGeometry></mxCell><mxCell id="o9OmI6OuXcPGQ3Csgr8X-2" value="" style="endArrow=none;html=1;rounded=0;" parent="1" edge="1"><mxGeometry width="50" height="50" relative="1" as="geometry"><mxPoint x="40" y="520" as="sourcePoint"/><mxPoint x="800" y="40" as="targetPoint"/></mxGeometry></mxCell><mxCell id="o9OmI6OuXcPGQ3Csgr8X-3" value="" style="ellipse;whiteSpace=wrap;html=1;" parent="1" vertex="1"><mxGeometry x="368.5" y="230" width="90" height="90" as="geometry"/></mxCell><mxCell id="o9OmI6OuXcPGQ3Csgr8X-4" value="" style="endArrow=none;html=1;rounded=0;" parent="1" target="o9OmI6OuXcPGQ3Csgr8X-3" edge="1"><mxGeometry width="50" height="50" relative="1" as="geometry"><mxPoint x="40" y="40" as="sourcePoint"/><mxPoint x="800" y="520" as="targetPoint"/></mxGeometry></mxCell><mxCell id="o9OmI6OuXcPGQ3Csgr8X-5" value="希望讨论更加深入" style="rounded=1;whiteSpace=wrap;html=1;" parent="1" vertex="1"><mxGeometry x="190" y="40" width="120" height="60" as="geometry"/></mxCell><mxCell id="o9OmI6OuXcPGQ3Csgr8X-6" value="希望有更和谐的讨论环境" style="rounded=1;whiteSpace=wrap;html=1;" parent="1" vertex="1"><mxGeometry x="350" y="100" width="140" height="60" as="geometry"/></mxCell><mxCell id="o9OmI6OuXcPGQ3Csgr8X-7" value="想要找到相关文献" style="rounded=1;whiteSpace=wrap;html=1;" parent="1" vertex="1"><mxGeometry x="510" y="40" width="120" height="60" as="geometry"/></mxCell><mxCell id="o9OmI6OuXcPGQ3Csgr8X-9" value="当今互联网讨论环境不好" style="rounded=1;whiteSpace=wrap;html=1;" parent="1" vertex="1"><mxGeometry x="80" y="185" width="120" height="60" as="geometry"/></mxCell><mxCell id="o9OmI6OuXcPGQ3Csgr8X-10" value="" style="endArrow=none;html=1;rounded=0;" parent="1" edge="1"><mxGeometry width="50" height="50" relative="1" as="geometry"><mxPoint x="164" y="480" as="sourcePoint"/><mxPoint x="664" y="480" as="targetPoint"/></mxGeometry></mxCell><mxCell id="o9OmI6OuXcPGQ3Csgr8X-11" value="" style="endArrow=none;html=1;rounded=0;" parent="1" edge="1"><mxGeometry width="50" height="50" relative="1" as="geometry"><mxPoint x="420" y="560" as="sourcePoint"/><mxPoint x="420" y="480" as="targetPoint"/></mxGeometry></mxCell><mxCell id="o9OmI6OuXcPGQ3Csgr8X-12" value="帖吧缺少活力" style="rounded=1;whiteSpace=wrap;html=1;" parent="1" vertex="1"><mxGeometry x="620" y="170" width="120" height="60" as="geometry"/></mxCell><mxCell id="o9OmI6OuXcPGQ3Csgr8X-13" value="能权衡好知名度和好环境吗" style="rounded=1;whiteSpace=wrap;html=1;" parent="1" vertex="1"><mxGeometry x="150" y="500" width="80" height="50" as="geometry"/></mxCell><mxCell id="o9OmI6OuXcPGQ3Csgr8X-14" value="知乎环境不好" style="rounded=1;whiteSpace=wrap;html=1;" parent="1" vertex="1"><mxGeometry x="620" y="245" width="120" height="60" as="geometry"/></mxCell><mxCell id="o9OmI6OuXcPGQ3Csgr8X-15" value="其他论坛和讨论网站单纯讨论历史的不多" style="rounded=1;whiteSpace=wrap;html=1;" parent="1" vertex="1"><mxGeometry x="620" y="320" width="120" height="60" as="geometry"/></mxCell><mxCell id="o9OmI6OuXcPGQ3Csgr8X-16" value="海量内容中怎么快速找到想要的" style="rounded=1;whiteSpace=wrap;html=1;" parent="1" vertex="1"><mxGeometry x="250" y="500" width="100" height="50" as="geometry"/></mxCell><mxCell id="o9OmI6OuXcPGQ3Csgr8X-17" value="&lt;div style=&quot;text-align: left&quot;&gt;&lt;font color=&quot;#333333&quot; face=&quot;Open Sans, Clear Sans, Helvetica Neue, Helvetica, Arial, Segoe UI Emoji, sans-serif&quot; style=&quot;font-size: 12px&quot;&gt;&amp;nbsp; &amp;nbsp;身边很多人通过B站推荐/关注历史区高质量up主获取优质内容&lt;/font&gt;&lt;/div&gt;" style="rounded=1;whiteSpace=wrap;html=1;" parent="1" vertex="1"><mxGeometry x="80" y="300" width="120" height="60" as="geometry"/></mxCell><mxCell id="o9OmI6OuXcPGQ3Csgr8X-18" value="圈子不能太大也不能太小" style="rounded=1;whiteSpace=wrap;html=1;" parent="1" vertex="1"><mxGeometry x="200" y="560" width="80" height="50" as="geometry"/></mxCell><mxCell id="o9OmI6OuXcPGQ3Csgr8X-19" value="更多优质、有深度的内容" style="rounded=1;whiteSpace=wrap;html=1;" parent="1" vertex="1"><mxGeometry x="450" y="500" width="80" height="50" as="geometry"/></mxCell><mxCell id="o9OmI6OuXcPGQ3Csgr8X-20" value="更方便得找到想要的内容" style="rounded=1;whiteSpace=wrap;html=1;" parent="1" vertex="1"><mxGeometry x="560" y="500" width="80" height="50" as="geometry"/></mxCell><mxCell id="o9OmI6OuXcPGQ3Csgr8X-21" value="“xx平台真恶臭，再也不想看了”" style="rounded=1;whiteSpace=wrap;html=1;" parent="1" vertex="1"><mxGeometry x="270" y="390" width="106" height="50" as="geometry"/></mxCell><mxCell id="o9OmI6OuXcPGQ3Csgr8X-22" value="没有更好选择，只能继续用" style="rounded=1;whiteSpace=wrap;html=1;" parent="1" vertex="1"><mxGeometry x="390" y="390" width="106" height="50" as="geometry"/></mxCell><mxCell id="2" value="讨论的氛围要和谐体验才好" style="rounded=1;whiteSpace=wrap;html=1;" vertex="1" parent="1"><mxGeometry x="496" y="560" width="100" height="50" as="geometry"/></mxCell><mxCell id="3" value="" style="ellipse;whiteSpace=wrap;html=1;aspect=fixed;fillColor=#000000;" vertex="1" parent="1"><mxGeometry x="430" y="257" width="13" height="13" as="geometry"/></mxCell><mxCell id="6" value="" style="endArrow=none;html=1;" edge="1" parent="1"><mxGeometry width="50" height="50" relative="1" as="geometry"><mxPoint x="421.5" y="295" as="sourcePoint"/><mxPoint x="451.5" y="295" as="targetPoint"/><Array as="points"><mxPoint x="431.5" y="305"/></Array></mxGeometry></mxCell><mxCell id="8" value="" style="endArrow=none;html=1;" edge="1" parent="1"><mxGeometry width="50" height="50" relative="1" as="geometry"><mxPoint x="459" y="283.5" as="sourcePoint"/><mxPoint x="459" y="266.5" as="targetPoint"/><Array as="points"><mxPoint x="469" y="276.5"/></Array></mxGeometry></mxCell><mxCell id="10" value="" style="endArrow=none;html=1;" edge="1" parent="1"><mxGeometry width="50" height="50" relative="1" as="geometry"><mxPoint x="370" y="290" as="sourcePoint"/><mxPoint x="370" y="260" as="targetPoint"/><Array as="points"><mxPoint x="360" y="270"/></Array></mxGeometry></mxCell><mxCell id="11" value="" style="endArrow=none;html=1;" edge="1" parent="1"><mxGeometry width="50" height="50" relative="1" as="geometry"><mxPoint x="369" y="290" as="sourcePoint"/><mxPoint x="369" y="260" as="targetPoint"/><Array as="points"><mxPoint x="350" y="270"/></Array></mxGeometry></mxCell></root></mxGraphModel></diagram></mxfile>